# xmcd
#
# Track frame offsets: 
#        150
#        29125
#        54025
#        64437
#        92150
#        111750
#        134387
#        155875
#        187375
#        204250
#        239037
#        255362
#        279637
#
# Disc length: 4036 seconds
#
# Revision: 2
# Processed by: cddbd v1.5.2PL0 Copyright (c) Steve Scherf et al.
# Submitted via: ExactAudioCopy v0.99pb1
#
DISCID=c90fc20d
DTITLE=John Mayall - Archives to Eighties
DYEAR=1988
DGENRE=Blues-Rock
TTITLE0=Accidental Suicide
TTITLE1=Force of Nature
TTITLE2=Boogie Albert
TTITLE3=Television Eye
TTITLE4=Prisons on the Road
TTITLE5=Home Again
TTITLE6=Mr. Censor Man
TTITLE7=Looking at Tomorrow
TTITLE8=Blue Fox
TTITLE9=Devil's Tricks
TTITLE10=Marriage Madness
TTITLE11=Dream With Me
TTITLE12=My Children
EXTD=
EXTT0=
EXTT1=
EXTT2=
EXTT3=
EXTT4=
EXTT5=
EXTT6=
EXTT7=
EXTT8=
EXTT9=
EXTT10=
EXTT11=
EXTT12=
PLAYORDER=
